<svg width="168" height="112" viewBox="0 0 168 112" fill="none" xmlns="http://www.w3.org/2000/svg">
<path d="M0 55.6809C0 55.8745 0.000987601 56.0678 0.0029582 56.2609C0.0971079 65.2834 2.3839 74.2124 6.74756 82.2493C13.0736 93.9004 23.3493 102.912 35.7264 107.663C48.1036 112.414 61.7699 112.593 74.2672 108.168C77.492 107.026 80.5844 105.596 83.5118 103.907C91.9292 99.0492 98.9831 92.0399 103.902 83.5211C104.952 81.702 107.278 81.0787 109.097 82.129C110.916 83.1792 111.54 85.5053 110.489 87.3244C105.763 95.5117 99.2996 102.472 91.6322 107.765C97.7646 110.089 104.415 111.361 111.362 111.361C142.113 111.361 167.042 86.4322 167.042 55.6807C167.042 42.4229 162.312 29.6003 153.702 19.5191C153.042 18.7474 152.364 17.9956 151.667 17.2644C151.053 16.6197 150.423 15.9898 149.778 15.3752C141.629 7.60817 131.279 2.46066 120.072 0.685647C117.379 0.259099 114.673 0.0330641 111.974 0.00336996C101.553 -0.111315 91.2473 2.70275 82.2681 8.2052C70.9641 15.1323 62.5027 25.8656 58.4058 38.4745C57.7567 40.4722 55.611 41.5654 53.6133 40.9163C51.6156 40.2672 50.5223 38.1216 51.1714 36.1239C55.4726 22.8862 64.0064 11.4673 75.4095 3.59659C69.2772 1.27249 62.6274 0.000310811 55.6806 0.000310811C25.1533 0.000310811 0.363869 24.5671 0.0039691 55.0091C0.0013255 55.2327 0 55.4567 0 55.6809Z" fill="#FC8800"/>
</svg>
