<svg width="40" height="40" viewBox="0 0 168 112" fill="none" xmlns="http://www.w3.org/2000/svg">
  <path d="M0.0694701 55.6809C0.0694701 55.8745 0.0704577 56.0678 0.0724283 56.2609C0.166578 65.2834 2.45337 74.2124 6.81703 82.2493C13.1431 93.9004 23.4188 102.912 35.7959 107.663C48.1731 112.414 61.8394 112.593 74.3367 108.168C77.5615 107.026 80.6539 105.596 83.5813 103.907C91.9987 99.0492 99.0526 92.0399 103.971 83.5211C105.021 81.702 107.347 81.0787 109.166 82.129C110.985 83.1792 111.609 85.5053 110.558 87.3244C105.832 95.5117 99.3691 102.472 91.7017 107.765C97.8341 110.089 104.484 111.361 111.431 111.361C142.182 111.361 167.111 86.4322 167.111 55.6807C167.111 42.4229 162.381 29.6003 153.771 19.5191C153.111 18.7474 152.433 17.9956 151.736 17.2644C151.122 16.6197 150.492 15.9898 149.847 15.3752C141.698 7.60817 131.348 2.46066 120.141 0.685647C117.448 0.259099 114.742 0.0330641 112.043 0.00336996C101.622 -0.111315 91.3168 2.70275 82.3376 8.2052C71.0336 15.1323 62.5722 25.8656 58.4753 38.4745C57.8262 40.4722 55.6805 41.5654 53.6828 40.9163C51.6851 40.2672 50.5918 38.1216 51.2409 36.1239C55.5421 22.8862 64.0759 11.4673 75.479 3.59659C69.3467 1.27249 62.6969 0.000310811 55.7501 0.000310811C25.2228 0.000310811 0.433339 24.5671 0.0734392 55.0091C0.0707956 55.2327 0.0694701 55.4567 0.0694701 55.6809Z" fill="#fd8800"/>
</svg>
